#!OML:ASF H:\Terrain\Walking\May29\JustinRory\Justin.ASF
:FULLY-SPECIFIED
:DEGREES
192
root 11.4263 18.0466 7.63579 -171.1 -37.5147 -180.347
lowerback 8.17286 -0.000380003 1.14727
upperback 2.62592 -0.0187098 1.20912
thorax -1.86507 -0.0702666 0.605277
lowerneck -4.00391 -14.5806 -17.9193
upperneck 8.66071 -19.7156 11.9781
head 6.22855 -9.71813 4.77027
rclavicle 1.63799e-013 -4.8901e-014
rhumerus -6.53063 -0.490187 -78.1163
rradius 58.8199
rwrist -37.7071
rhand -34.8913 35.3761
rfingers 7.12502
rthumb -8.03981 5.54903
lclavicle 1.63799e-013 -4.8901e-014
lhumerus -33.1807 4.57757 77.487
lradius 38.1917
lwrist -5.28567
lhand -1.27789 34.576
lfingers 7.12502
lthumb 24.3658 63.047
rfemur -26.5843 -12.9725 25.5231
rtibia 24.2908
rfoot -8.06802 -14.7125
rtoes 24.9704
lfemur -21.6272 6.35026 -16.5409
ltibia 39.9873
lfoot -17.8097 3.93181
ltoes -4.83644
193
root 11.4331 18.0366 7.66634 -171.16 -37.9122 -180.621
lowerback 8.25481 -0.322262 0.790737
upperback 2.59799 -0.469776 1.43308
thorax -1.93377 -0.296573 1.08109
lowerneck -4.6062 -14.4248 -18.441
upperneck 9.00438 -19.355 11.7818
head 6.41381 -9.54465 4.77957
rclavicle 3.65764e-014 -2.90226e-014
rhumerus -5.83642 0.121504 -77.7078
rradius 57.6278
rwrist -36.9659
rhand -34.6888 35.3591
rfingers 7.12502
rthumb -7.84441 5.5246
lclavicle 3.65764e-014 -2.90226e-014
lhumerus -33.6578 5.67017 77.4572
lradius 37.7499
lwrist -5.54972
lhand -0.752434 35.5148
lfingers 7.12502
lthumb 24.8695 63.9171
rfemur -26.4062 -13.2424 25.2216
rtibia 24.2313
rfoot -8.06339 -14.9632
rtoes 24.2733
lfemur -20.8682 6.21468 -16.7462
ltibia 40.3461
lfoot -17.6983 4.28137
ltoes -5.79805
194
root 11.4336 18.0252 7.69614 -171.432 -38.4507 -180.536
lowerback 8.22406 -0.689006 0.751743
upperback 2.59006 -0.959076 1.75659
thorax -1.91214 -0.54362 1.48428
lowerneck -4.99071 -14.2308 -18.8889
upperneck 9.16557 -18.9657 11.6089
head 6.49549 -9.36478 4.81323
rclavicle -4.07509e-014 3.89618e-014
rhumerus -5.22041 0.707767 -77.3063
rradius 56.5773
rwrist -36.3987
rhand -34.5276 35.2011
rfingers 7.12502
rthumb -7.6888 5.36085
lclavicle -4.07509e-014 3.89618e-014
lhumerus -34.079 6.88714 77.44
lradius 37.22
lwrist -5.94741
lhand -0.363068 36.3363
lfingers 7.12502
lthumb 25.2426 64.6866
rfemur -26.1819 -13.5748 25.2186
rtibia 24.1952
rfoot -8.07022 -15.166
rtoes 24.6883
lfemur -20.1062 6.16256 -16.6495
ltibia 40.6551
lfoot -17.6218 4.42605
ltoes -5.38524
195
root 11.4261 18.026 7.7243 -171.603 -39.1169 -180.253
lowerback 7.91555 -0.980296 1.08664
upperback 2.49407 -1.31735 1.95921
thorax -1.83547 -0.721437 1.53419
lowerneck -4.92906 -14.0782 -19.0345
upperneck 9.02007 -18.7484 11.6756
head 6.42711 -9.26371 4.89467
rclavicle 4.27387e-014 3.97569e-015
rhumerus -4.955 0.846323 -76.9674
rradius 55.5786
rwrist -35.5781
rhand -34.3777 34.9144
rfingers 7.12502
rthumb -7.5441 5.06898
lclavicle 4.27387e-014 3.97569e-015
lhumerus -34.4602 7.67156 77.3431
lradius 36.7722
lwrist -6.47312
lhand -0.0871965 36.7034
lfingers 7.12502
lthumb 25.5069 65.0161
rfemur -26.1757 -14.0467 25.4225
rtibia 24.1328
rfoot -8.0658 -15.2602
rtoes 25.275
lfemur -19.5858 6.22146 -16.4254
ltibia 40.9098
lfoot -17.5093 4.33081
ltoes -3.48753
196
root 11.4204 18.0314 7.74663 -171.615 -39.6699 -180.244
lowerback 7.52993 -1.21122 1.11264
upperback 2.43959 -1.62434 2.11186
thorax -1.66857 -0.873612 1.69578
lowerneck -4.94062 -13.9772 -19.2485
upperneck 8.95546 -18.5863 11.7166
head 6.40836 -9.18965 4.96117
rclavicle -3.3197e-014 3.10104e-014
rhumerus -4.97688 0.91011 -76.6099
rradius 54.8916
rwrist -34.5705
rhand -34.0066 34.8126
rfingers 7.12502
rthumb -7.18591 4.95457
lclavicle -3.3197e-014 3.10104e-014
lhumerus -34.7624 8.43711 77.2687
lradius 36.3745
lwrist -7.17487
lhand 0.633799 37.2191
lfingers 7.12502
lthumb 26.1973 65.4312
rfemur -26.0982 -14.3454 25.3643
rtibia 23.9284
rfoot -7.96049 -15.509
rtoes 25.7161
lfemur -18.9999 6.17031 -16.4026
ltibia 41.1474
lfoot -17.4192 4.14304
ltoes -0.676402
197
root 11.4175 18.0397 7.77078 -171.579 -40.2198 -180.332
lowerback 7.10094 -0.950752 1.28806
upperback 2.52763 -1.27578 1.8341
thorax -1.35742 -0.695205 1.26912
lowerneck -5.17055 -14.3543 -18.1421
upperneck 9.11435 -19.1499 11.4935
head 6.45179 -9.42916 4.64133
rclavicle -2.82274e-014 -7.95139e-015
rhumerus -5.71463 -0.979005 -76.3471
rradius 54.9078
rwrist -33.3025
rhand -33.5504 34.6844
rfingers 7.12502
rthumb -6.74554 4.81183
lclavicle -2.82274e-014 -7.95139e-015
lhumerus -34.1849 7.38509 77.3339
lradius 35.7029
lwrist -7.59038
lhand 1.25895 37.6357
lfingers 7.12502
lthumb 26.7957 65.7576
rfemur -25.9844 -14.6127 25.2379
rtibia 23.6623
rfoot -7.71636 -15.8877
rtoes 25.7729
lfemur -18.3904 5.99153 -16.4372
ltibia 41.3943
lfoot -17.3596 4.22936
ltoes -0.183299
198
root 11.4167 18.0564 7.806 -171.476 -40.8066 -180.437
lowerback 6.82616 -0.990047 1.35116
upperback 2.435 -1.32017 1.76945
thorax -1.30287 -0.712776 1.16579
lowerneck -5.37054 -14.4605 -17.8092
upperneck 9.41787 -19.3168 11.4067
head 6.5639 -9.49718 4.52444
rclavicle 8.11041e-014 -2.3059e-014
rhumerus -5.57085 -1.99067 -76.2715
rradius 53.9909
rwrist -31.3893
rhand -33.1618 34.1659
rfingers 7.12502
rthumb -6.37045 4.28175
lclavicle 8.11041e-014 -2.3059e-014
lhumerus -34.2175 7.32662 77.2527
lradius 35.0252
lwrist -7.67923
lhand 1.00886 37.4425
lfingers 7.12502
lthumb 26.5563 65.6008
rfemur -25.943 -14.9888 25.1093
rtibia 23.3626
rfoot -7.44457 -16.1763
rtoes 24.7144
lfemur -17.9004 5.95945 -16.511
ltibia 41.6775
lfoot -17.3241 4.75038
ltoes -2.183
